<svg width="390" height="157" viewBox="0 0 390 157" fill="none" xmlns="http://www.w3.org/2000/svg">
<path d="M0 0H390V117.126C390 124.486 380.933 127.979 375.995 122.522C372.309 118.449 365.716 119.187 363.023 123.974L349.477 148.05C340.991 163.134 318 157.11 318 139.803C318 127.714 305.626 119.573 294.523 124.358L289.854 126.371C282.125 129.703 273.139 127.883 267.315 121.806L263.969 118.315C253.77 107.673 236.461 108.718 227.617 120.511C220.193 130.41 206.437 133 195.921 126.478L177.39 114.986C160.841 104.723 139.716 105.548 124.018 117.07L118.14 121.383C104.639 131.292 86.2939 131.385 72.694 121.612L67.1002 117.592C49.6916 105.083 25.1682 112.092 17 131.912C8.71857 134.878 0 128.739 0 119.943V0Z" fill="#DAA691"/>
</svg>
