<svg width="390" height="152" viewBox="0 0 390 152" fill="none" xmlns="http://www.w3.org/2000/svg">
<path d="M0 -5H390V112.126C390 119.486 380.933 122.979 375.995 117.522C372.309 113.449 365.716 114.187 363.023 118.974L349.477 143.05C340.991 158.134 318 152.11 318 134.803C318 122.714 305.626 114.573 294.523 119.358L289.854 121.371C282.125 124.703 273.139 122.883 267.315 116.806L263.969 113.315C253.77 102.673 236.461 103.718 227.617 115.511C220.193 125.41 206.437 128 195.921 121.478L177.39 109.986C160.841 99.7232 139.716 100.548 124.018 112.07L118.14 116.383C104.639 126.292 86.2939 126.385 72.694 116.612L67.1002 112.592C49.6916 100.083 25.1682 107.092 17 126.912C8.71857 129.878 0 123.739 0 114.943V-5Z" fill="#DAA691"/>
</svg>
