<svg width="17" height="9" viewBox="0 0 17 9" fill="none" xmlns="http://www.w3.org/2000/svg">
<path d="M14.094 3.61811C13.614 3.24611 13.092 2.79011 12.528 2.25011C11.976 1.71011 11.49 1.15811 11.07 0.594112L12.042 0.000112414C12.462 0.528113 12.924 1.05011 13.428 1.56611C13.932 2.07011 14.46 2.54411 15.012 2.98811C15.576 3.43211 16.122 3.82811 16.65 4.17611C16.122 4.51211 15.576 4.90811 15.012 5.36411C14.46 5.80811 13.932 6.28811 13.428 6.80411C12.924 7.30811 12.462 7.82411 12.042 8.35211L11.07 7.75811C11.49 7.19411 11.976 6.64211 12.528 6.10211C13.092 5.55011 13.614 5.09411 14.094 4.73411H2.93478e-05V3.61811H14.094Z" fill="white"/>
</svg>
