<svg width="26" height="28" viewBox="0 0 26 28" fill="none" xmlns="http://www.w3.org/2000/svg">
<path d="M17.8 0C18.6487 0 19.4626 0.310528 20.0627 0.86327C20.6629 1.41601 21 2.16569 21 2.94739V8.84217C21 9.62387 20.6629 10.3735 20.0627 10.9263C19.4626 11.479 18.6487 11.7896 17.8 11.7896H15.7312L13.5656 13.7842C13.4278 13.9111 13.2446 13.9873 13.0501 13.9985C12.8557 14.0098 12.6635 13.9553 12.5096 13.8454L12.4344 13.7842L10.268 11.7896H8.2C7.37901 11.7896 6.58942 11.4989 5.99455 10.9778C5.39968 10.4566 5.04505 9.74478 5.004 8.98954L5 8.84217V2.94739C5 2.16569 5.33714 1.41601 5.93726 0.86327C6.53737 0.310528 7.35131 0 8.2 0H17.8ZM14.6 6.63163H9.8C9.58783 6.63163 9.38434 6.70926 9.23431 6.84745C9.08429 6.98563 9 7.17305 9 7.36847C9 7.5639 9.08429 7.75132 9.23431 7.8895C9.38434 8.02769 9.58783 8.10532 9.8 8.10532H14.6C14.8122 8.10532 15.0157 8.02769 15.1657 7.8895C15.3157 7.75132 15.4 7.5639 15.4 7.36847C15.4 7.17305 15.3157 6.98563 15.1657 6.84745C15.0157 6.70926 14.8122 6.63163 14.6 6.63163ZM16.2 3.68424H9.8C9.58783 3.68424 9.38434 3.76187 9.23431 3.90006C9.08429 4.03824 9 4.22566 9 4.42109C9 4.61651 9.08429 4.80393 9.23431 4.94211C9.38434 5.0803 9.58783 5.15793 9.8 5.15793H16.2C16.4122 5.15793 16.6157 5.0803 16.7657 4.94211C16.9157 4.80393 17 4.61651 17 4.42109C17 4.22566 16.9157 4.03824 16.7657 3.90006C16.6157 3.76187 16.4122 3.68424 16.2 3.68424Z" fill="#BC8770"/>
<path d="M10.3013 27.63C10.3146 27.6833 10.3213 27.72 10.3213 27.74C10.3213 27.9133 10.2213 28 10.0213 28H9.51129C9.31796 28 9.19796 27.9033 9.15129 27.71L8.75129 26.05H6.70129L6.29129 27.71C6.24462 27.9033 6.12462 28 5.93129 28H5.42129C5.22129 28 5.12129 27.9133 5.12129 27.74C5.12129 27.72 5.12796 27.6833 5.14129 27.63L7.02129 20.68C7.06796 20.4933 7.19129 20.4 7.39129 20.4H8.05129C8.25129 20.4 8.37462 20.4933 8.42129 20.68L10.3013 27.63ZM6.84129 25.45H8.60129L7.72129 21.85L6.84129 25.45ZM15.3321 27.4C15.4254 27.4 15.5054 27.43 15.5721 27.49C15.6387 27.5433 15.6721 27.6133 15.6721 27.7C15.6721 27.7867 15.6387 27.86 15.5721 27.92C15.5054 27.9733 15.4254 28 15.3321 28H11.4621C11.3687 28 11.2887 27.9667 11.2221 27.9C11.1554 27.8333 11.1221 27.7533 11.1221 27.66V20.74C11.1221 20.6467 11.1554 20.5667 11.2221 20.5C11.2887 20.4333 11.3687 20.4 11.4621 20.4H12.0621C12.1554 20.4 12.2354 20.4333 12.3021 20.5C12.3687 20.5667 12.4021 20.6467 12.4021 20.74V27.4H15.3321ZM20.5371 27.4C20.6305 27.4 20.7105 27.43 20.7771 27.49C20.8438 27.5433 20.8771 27.6133 20.8771 27.7C20.8771 27.7867 20.8438 27.86 20.7771 27.92C20.7105 27.9733 20.6305 28 20.5371 28H16.6671C16.5738 28 16.4938 27.9667 16.4271 27.9C16.3605 27.8333 16.3271 27.7533 16.3271 27.66V20.74C16.3271 20.6467 16.3605 20.5667 16.4271 20.5C16.4938 20.4333 16.5738 20.4 16.6671 20.4H17.2671C17.3605 20.4 17.4405 20.4333 17.5071 20.5C17.5738 20.5667 17.6071 20.6467 17.6071 20.74V27.4H20.5371Z" fill="#BC8770"/>
</svg>
