<svg width="47" height="30" viewBox="0 0 47 30" fill="none" xmlns="http://www.w3.org/2000/svg">
<path d="M31 4.15625C31 4.53906 30.9036 4.89453 30.7109 5.22266C30.5182 5.55078 30.2552 5.82878 29.9219 6.05664C29.974 6.23893 30 6.40755 30 6.5625C30 7.16406 29.7552 7.67904 29.2656 8.10742C28.776 8.53581 28.1875 8.75 27.5 8.75C27.1354 8.75 26.776 8.67708 26.4219 8.53125C26.151 8.86849 25.8021 9.13509 25.375 9.33105C24.9479 9.52702 24.4896 9.625 24 9.625C23.4479 9.625 22.9401 9.50195 22.4766 9.25586C22.013 9.00977 21.651 8.67708 21.3906 8.25781C20.9948 8.58594 20.5312 8.75 20 8.75C19.4479 8.75 18.9766 8.5791 18.5859 8.2373C18.1953 7.89551 18 7.48307 18 7C17.1667 7 16.4583 6.74479 15.875 6.23438C15.2917 5.72396 15 5.10417 15 4.375C15 3.64583 15.2917 3.02604 15.875 2.51562C16.4583 2.00521 17.1667 1.75 18 1.75C18.4271 1.75 18.8385 1.82747 19.2344 1.98242C19.4844 1.39909 19.9062 0.922852 20.5 0.553711C21.0938 0.18457 21.7604 0 22.5 0C23.0208 0 23.5104 0.0979818 23.9688 0.293945C24.4271 0.489909 24.8229 0.75651 25.1562 1.09375C25.3021 0.765625 25.5417 0.501302 25.875 0.300781C26.2083 0.10026 26.5833 0 27 0C27.5521 0 28.0234 0.170898 28.4141 0.512695C28.8047 0.854492 29 1.26693 29 1.75C29 1.75911 28.9974 1.77507 28.9922 1.79785C28.987 1.82064 28.9844 1.83659 28.9844 1.8457C29.5781 1.99154 30.0625 2.27637 30.4375 2.7002C30.8125 3.12402 31 3.60938 31 4.15625ZM18 12.25C18.2812 12.25 18.5182 12.3343 18.7109 12.5029C18.9036 12.6715 19 12.8766 19 13.1182C19 13.3597 18.901 13.5671 18.7031 13.7402C18.5052 13.9134 18.2682 14 17.9922 14C17.7161 14 17.4818 13.9134 17.2891 13.7402C17.0964 13.5671 17 13.362 17 13.125C17 12.888 17.0964 12.6829 17.2891 12.5098C17.4818 12.3366 17.7188 12.25 18 12.25ZM20.5 9.625C20.9167 9.625 21.2708 9.7526 21.5625 10.0078C21.8542 10.263 22 10.5729 22 10.9375C22 11.3021 21.8542 11.612 21.5625 11.8672C21.2708 12.1224 20.9167 12.25 20.5 12.25C20.0833 12.25 19.7292 12.1224 19.4375 11.8672C19.1458 11.612 19 11.3021 19 10.9375C19 10.5729 19.1458 10.263 19.4375 10.0078C19.7292 9.7526 20.0833 9.625 20.5 9.625Z" fill="#756A5C"/>
<path d="M11.5971 24.33C11.5971 25.09 11.4671 25.7533 11.2071 26.32C10.9538 26.88 10.6104 27.3167 10.1771 27.63C9.74378 27.9433 9.25378 28.1 8.70711 28.1C8.12711 28.1 7.60044 27.95 7.12711 27.65C6.65378 27.3433 6.27711 26.9167 5.99711 26.37C5.72378 25.8233 5.58711 25.1867 5.58711 24.46C5.58711 23.9067 5.66378 23.38 5.81711 22.88C5.97711 22.38 6.19711 21.9367 6.47711 21.55C6.75711 21.1633 7.07711 20.86 7.43711 20.64C7.80378 20.4133 8.19044 20.3 8.59711 20.3C9.01711 20.3 9.40711 20.4 9.76711 20.6C10.1338 20.7933 10.4538 21.07 10.7271 21.43C11.0004 21.79 11.2138 22.2167 11.3671 22.71C11.5204 23.2033 11.5971 23.7433 11.5971 24.33ZM10.3171 24.33C10.3171 23.7167 10.2504 23.16 10.1171 22.66C9.99044 22.16 9.80044 21.7633 9.54711 21.47C9.29378 21.1767 8.97711 21.03 8.59711 21.03C8.33711 21.03 8.10044 21.13 7.88711 21.33C7.67378 21.5233 7.49044 21.7867 7.33711 22.12C7.19044 22.4467 7.07378 22.8133 6.98711 23.22C6.90711 23.6267 6.86711 24.04 6.86711 24.46C6.86711 25.0333 6.94044 25.5433 7.08711 25.99C7.23378 26.43 7.44378 26.7767 7.71711 27.03C7.99711 27.2767 8.32711 27.4 8.70711 27.4C9.04044 27.4 9.32711 27.2667 9.56711 27C9.80711 26.7267 9.99044 26.3567 10.1171 25.89C10.2504 25.4233 10.3171 24.9033 10.3171 24.33ZM16.902 27.64C16.902 27.7467 16.8686 27.8333 16.802 27.9C16.7353 27.9667 16.6553 28 16.562 28H16.002C15.9086 28 15.8286 27.9667 15.762 27.9C15.6953 27.8267 15.662 27.7367 15.662 27.63C15.662 27.1367 15.662 26.7567 15.662 26.49C15.662 26.2167 15.6586 26.01 15.652 25.87C15.652 25.7233 15.652 25.6 15.652 25.5C15.652 24.8333 15.5786 24.3167 15.432 23.95C15.292 23.5833 15.0586 23.4 14.732 23.4C14.3186 23.4 14.0153 23.49 13.822 23.67C13.6286 23.8433 13.532 24.1267 13.532 24.52V27.66C13.532 27.7533 13.4986 27.8333 13.432 27.9C13.3653 27.9667 13.2853 28 13.192 28H12.592C12.4986 28 12.4186 27.9667 12.352 27.9C12.2853 27.8333 12.252 27.7533 12.252 27.66V23.14C12.252 23.0467 12.2853 22.9667 12.352 22.9C12.4186 22.8333 12.4986 22.8 12.592 22.8H13.192C13.3386 22.8 13.442 22.8633 13.502 22.99C13.8686 22.8633 14.2786 22.8 14.732 22.8C15.2053 22.8 15.582 22.8733 15.862 23.02C16.142 23.1667 16.3553 23.37 16.502 23.63C16.6486 23.8833 16.7486 24.1733 16.802 24.5C16.8553 24.8267 16.8853 25.17 16.892 25.53C16.8986 25.63 16.902 25.7533 16.902 25.9C16.902 26.04 16.902 26.2433 16.902 26.51C16.902 26.7767 16.902 27.1533 16.902 27.64ZM18.2035 29.24C18.1302 29.1667 18.0935 29.0867 18.0935 29C18.0935 28.8267 18.1935 28.7067 18.3935 28.64L18.7135 28.54C18.7335 28.5333 18.7602 28.53 18.7935 28.53C18.9068 28.53 18.9968 28.58 19.0635 28.68C19.2368 28.9333 19.3802 29.1 19.4935 29.18C19.6135 29.26 19.7668 29.3 19.9535 29.3C20.3135 29.3 20.5935 29.22 20.7935 29.06C21.0002 28.9067 21.1035 28.6667 21.1035 28.34V27.64C20.9302 27.7867 20.7335 27.9 20.5135 27.98C20.3002 28.06 20.0602 28.1 19.7935 28.1C19.3202 28.1 18.9035 27.9833 18.5435 27.75C18.1835 27.51 17.9035 27.1867 17.7035 26.78C17.5035 26.3667 17.4035 25.9033 17.4035 25.39C17.4035 24.8833 17.4935 24.4367 17.6735 24.05C17.8535 23.6633 18.1102 23.36 18.4435 23.14C18.7835 22.9133 19.1902 22.8 19.6635 22.8C19.9635 22.8 20.2335 22.8367 20.4735 22.91C20.7135 22.9833 20.9235 23.0867 21.1035 23.22C21.1102 23.1267 21.1435 23.05 21.2035 22.99C21.2635 22.93 21.3435 22.9 21.4435 22.9H21.9435C22.0368 22.9 22.1168 22.9333 22.1835 23C22.2502 23.0667 22.2835 23.1467 22.2835 23.24V28.34C22.2835 28.6467 22.1802 28.9167 21.9735 29.15C21.7735 29.3833 21.4968 29.5667 21.1435 29.7C20.7902 29.8333 20.3935 29.9 19.9535 29.9C19.2402 29.9 18.6568 29.68 18.2035 29.24ZM19.7935 27.49C20.0002 27.49 20.2035 27.42 20.4035 27.28C20.6035 27.14 20.7668 26.92 20.8935 26.62C21.0268 26.3133 21.0935 25.9233 21.0935 25.45C21.0935 24.7233 20.9702 24.2033 20.7235 23.89C20.4768 23.57 20.1235 23.41 19.6635 23.41C19.4968 23.41 19.3302 23.4833 19.1635 23.63C18.9968 23.77 18.8568 23.9867 18.7435 24.28C18.6368 24.5733 18.5835 24.9433 18.5835 25.39C18.5835 25.79 18.6235 26.15 18.7035 26.47C18.7902 26.7833 18.9202 27.0333 19.0935 27.22C19.2735 27.4 19.5068 27.49 19.7935 27.49ZM25.2132 22.8C25.7065 22.8 26.1399 22.92 26.5132 23.16C26.8865 23.3933 27.1765 23.7133 27.3832 24.12C27.5965 24.5267 27.7032 24.9867 27.7032 25.5C27.7032 25.9933 27.6032 26.4367 27.4032 26.83C27.2099 27.2233 26.9365 27.5333 26.5832 27.76C26.2299 27.9867 25.8165 28.1 25.3432 28.1C24.8432 28.1 24.4032 27.9867 24.0232 27.76C23.6499 27.5267 23.3565 27.21 23.1432 26.81C22.9365 26.41 22.8332 25.9567 22.8332 25.45C22.8332 24.9367 22.9299 24.48 23.1232 24.08C23.3232 23.68 23.5999 23.3667 23.9532 23.14C24.3132 22.9133 24.7332 22.8 25.2132 22.8ZM25.2132 23.4C24.9532 23.4 24.7299 23.49 24.5432 23.67C24.3565 23.8433 24.2132 24.0867 24.1132 24.4C24.0132 24.7067 23.9632 25.0567 23.9632 25.45C23.9632 26.1567 24.0965 26.6767 24.3632 27.01C24.6299 27.3367 24.9565 27.5 25.3432 27.5C25.6432 27.5 25.8832 27.4033 26.0632 27.21C26.2432 27.0167 26.3732 26.7667 26.4532 26.46C26.5332 26.1533 26.5732 25.8333 26.5732 25.5C26.5732 24.8867 26.4532 24.3833 26.2132 23.99C25.9732 23.5967 25.6399 23.4 25.2132 23.4ZM29.7327 21.63C29.7327 21.7233 29.6994 21.8033 29.6327 21.87C29.5661 21.9367 29.4861 21.97 29.3927 21.97H28.7927C28.6994 21.97 28.6194 21.9367 28.5527 21.87C28.4861 21.8033 28.4527 21.7233 28.4527 21.63V21.04C28.4527 20.9467 28.4861 20.8667 28.5527 20.8C28.6194 20.7333 28.6994 20.7 28.7927 20.7H29.3927C29.4861 20.7 29.5661 20.7333 29.6327 20.8C29.6994 20.8667 29.7327 20.9467 29.7327 21.04V21.63ZM29.7327 27.66C29.7327 27.7533 29.6994 27.8333 29.6327 27.9C29.5661 27.9667 29.4861 28 29.3927 28H28.7927C28.6994 28 28.6194 27.9667 28.5527 27.9C28.4861 27.8333 28.4527 27.7533 28.4527 27.66V23.24C28.4527 23.1467 28.4861 23.0667 28.5527 23C28.6194 22.9333 28.6994 22.9 28.7927 22.9H29.3927C29.4861 22.9 29.5661 22.9333 29.6327 23C29.6994 23.0667 29.7327 23.1467 29.7327 23.24V27.66ZM35.6324 27.64C35.6324 27.7467 35.5991 27.8333 35.5324 27.9C35.4658 27.9667 35.3858 28 35.2924 28H34.7324C34.6391 28 34.5591 27.9667 34.4924 27.9C34.4258 27.8267 34.3924 27.7367 34.3924 27.63C34.3924 27.1367 34.3924 26.7567 34.3924 26.49C34.3924 26.2167 34.3891 26.01 34.3824 25.87C34.3824 25.7233 34.3824 25.6 34.3824 25.5C34.3824 24.8333 34.3091 24.3167 34.1624 23.95C34.0224 23.5833 33.7891 23.4 33.4624 23.4C33.0491 23.4 32.7458 23.49 32.5524 23.67C32.3591 23.8433 32.2624 24.1267 32.2624 24.52V27.66C32.2624 27.7533 32.2291 27.8333 32.1624 27.9C32.0958 27.9667 32.0158 28 31.9224 28H31.3224C31.2291 28 31.1491 27.9667 31.0824 27.9C31.0158 27.8333 30.9824 27.7533 30.9824 27.66V23.14C30.9824 23.0467 31.0158 22.9667 31.0824 22.9C31.1491 22.8333 31.2291 22.8 31.3224 22.8H31.9224C32.0691 22.8 32.1724 22.8633 32.2324 22.99C32.5991 22.8633 33.0091 22.8 33.4624 22.8C33.9358 22.8 34.3124 22.8733 34.5924 23.02C34.8724 23.1667 35.0858 23.37 35.2324 23.63C35.3791 23.8833 35.4791 24.1733 35.5324 24.5C35.5858 24.8267 35.6158 25.17 35.6224 25.53C35.6291 25.63 35.6324 25.7533 35.6324 25.9C35.6324 26.04 35.6324 26.2433 35.6324 26.51C35.6324 26.7767 35.6324 27.1533 35.6324 27.64ZM36.934 29.24C36.8607 29.1667 36.824 29.0867 36.824 29C36.824 28.8267 36.924 28.7067 37.124 28.64L37.444 28.54C37.464 28.5333 37.4907 28.53 37.524 28.53C37.6373 28.53 37.7273 28.58 37.794 28.68C37.9673 28.9333 38.1107 29.1 38.224 29.18C38.344 29.26 38.4973 29.3 38.684 29.3C39.044 29.3 39.324 29.22 39.524 29.06C39.7307 28.9067 39.834 28.6667 39.834 28.34V27.64C39.6607 27.7867 39.464 27.9 39.244 27.98C39.0307 28.06 38.7907 28.1 38.524 28.1C38.0507 28.1 37.634 27.9833 37.274 27.75C36.914 27.51 36.634 27.1867 36.434 26.78C36.234 26.3667 36.134 25.9033 36.134 25.39C36.134 24.8833 36.224 24.4367 36.404 24.05C36.584 23.6633 36.8407 23.36 37.174 23.14C37.514 22.9133 37.9207 22.8 38.394 22.8C38.694 22.8 38.964 22.8367 39.204 22.91C39.444 22.9833 39.654 23.0867 39.834 23.22C39.8407 23.1267 39.874 23.05 39.934 22.99C39.994 22.93 40.074 22.9 40.174 22.9H40.674C40.7673 22.9 40.8473 22.9333 40.914 23C40.9807 23.0667 41.014 23.1467 41.014 23.24V28.34C41.014 28.6467 40.9107 28.9167 40.704 29.15C40.504 29.3833 40.2273 29.5667 39.874 29.7C39.5207 29.8333 39.124 29.9 38.684 29.9C37.9707 29.9 37.3873 29.68 36.934 29.24ZM38.524 27.49C38.7307 27.49 38.934 27.42 39.134 27.28C39.334 27.14 39.4973 26.92 39.624 26.62C39.7573 26.3133 39.824 25.9233 39.824 25.45C39.824 24.7233 39.7007 24.2033 39.454 23.89C39.2073 23.57 38.854 23.41 38.394 23.41C38.2273 23.41 38.0607 23.4833 37.894 23.63C37.7273 23.77 37.5873 23.9867 37.474 24.28C37.3673 24.5733 37.314 24.9433 37.314 25.39C37.314 25.79 37.354 26.15 37.434 26.47C37.5207 26.7833 37.6507 27.0333 37.824 27.22C38.004 27.4 38.2373 27.49 38.524 27.49Z" fill="#756A5C"/>
</svg>
