<svg width="46" height="27" viewBox="0 0 46 27" fill="none" xmlns="http://www.w3.org/2000/svg">
<path d="M15.2586 0C14.8606 0 14.4789 0.162087 14.1974 0.450605C13.916 0.739122 13.7579 1.13044 13.7579 1.53846C13.7579 1.94649 13.916 2.3378 14.1974 2.62632C14.4789 2.91484 14.8606 3.07692 15.2586 3.07692C15.6567 3.07692 16.0384 2.91484 16.3198 2.62632C16.6013 2.3378 16.7594 1.94649 16.7594 1.53846C16.7594 1.13044 16.6013 0.739122 16.3198 0.450605C16.0384 0.162087 15.6567 0 15.2586 0ZM26.1391 3.84615H25.6138C24.9835 3.84615 24.4057 4.16923 24.053 4.7L21.6068 8.46154H19.4082L16.962 4.7C16.6168 4.16154 16.0315 3.84615 15.4012 3.84615H14.8759C14.3784 3.84615 13.9013 4.04876 13.5494 4.40941C13.1976 4.77006 13 5.2592 13 5.76923V10H16.7519V7.15385L18.1551 9.31538C18.4327 9.74615 18.8979 10 19.4007 10H21.5993C22.1021 10 22.5673 9.74615 22.8449 9.31538L24.2481 7.15385V10H28V5.76923C28 5.2592 27.8024 4.77006 27.4506 4.40941C27.0987 4.04876 26.6216 3.84615 26.1241 3.84615H26.1391ZM25.7639 0C25.3659 0 24.9841 0.162087 24.7027 0.450605C24.4212 0.739122 24.2631 1.13044 24.2631 1.53846C24.2631 1.94649 24.4212 2.3378 24.7027 2.62632C24.9841 2.91484 25.3659 3.07692 25.7639 3.07692C26.1619 3.07692 26.5436 2.91484 26.8251 2.62632C27.1065 2.3378 27.2646 1.94649 27.2646 1.53846C27.2646 1.13044 27.1065 0.739122 26.8251 0.450605C26.5436 0.162087 26.1619 0 25.7639 0Z" fill="#888076"/>
<path d="M5.11 25.61C5.20333 25.7567 5.25 25.8567 5.25 25.91C5.25 25.97 5.19 26 5.07 26H4.34C4.23333 26 4.15 25.9567 4.09 25.87L2.14 22.76C2.13333 22.7467 2.12667 22.7367 2.12 22.73H2.09C2.02333 22.73 1.95667 22.73 1.89 22.73C1.82333 22.7233 1.75333 22.72 1.68 22.72V25.66C1.68 25.7533 1.64667 25.8333 1.58 25.9C1.51333 25.9667 1.43333 26 1.34 26H0.84C0.746667 26 0.666667 25.9667 0.6 25.9C0.533333 25.8333 0.5 25.7533 0.5 25.66V18.69C0.5 18.6033 0.526667 18.53 0.58 18.47C0.64 18.41 0.713333 18.3767 0.8 18.37C1.03333 18.35 1.25333 18.3333 1.46 18.32C1.67333 18.3067 1.87667 18.3 2.07 18.3C4.33667 18.3 5.47 19.0933 5.47 20.68C5.47 21.2333 5.28 21.6767 4.9 22.01C4.52 22.3367 3.96333 22.5533 3.23 22.66L5.11 25.61ZM1.68 18.91V22.11C1.88 22.1233 2.07 22.13 2.25 22.13C2.98333 22.13 3.50667 22.0167 3.82 21.79C4.13333 21.5633 4.29 21.1933 4.29 20.68C4.29 20.0333 4.12667 19.5767 3.8 19.31C3.48 19.0367 2.92667 18.9 2.14 18.9C2.08667 18.9 2.01333 18.9033 1.92 18.91C1.82667 18.91 1.74667 18.91 1.68 18.91ZM9.90578 25.33C9.69911 25.5367 9.43578 25.7167 9.11578 25.87C8.80245 26.0233 8.45911 26.1 8.08578 26.1C7.25911 26.1 6.61578 25.8633 6.15578 25.39C5.70245 24.91 5.47578 24.2667 5.47578 23.46C5.47578 22.9533 5.57911 22.5 5.78578 22.1C5.99911 21.7 6.28911 21.3833 6.65578 21.15C7.02911 20.9167 7.45911 20.8 7.94578 20.8C8.44578 20.8 8.88245 20.9067 9.25578 21.12C9.63578 21.3333 9.93245 21.6267 10.1458 22C10.3591 22.3733 10.4658 22.8033 10.4658 23.29C10.4658 23.3833 10.4324 23.46 10.3658 23.52C10.3058 23.58 10.2291 23.61 10.1358 23.61H6.55578C6.58245 24.2033 6.73911 24.6667 7.02578 25C7.31245 25.3333 7.66578 25.5 8.08578 25.5C8.29911 25.5 8.46911 25.4433 8.59578 25.33C8.72245 25.2167 8.84911 25.0567 8.97578 24.85C9.04911 24.7033 9.16245 24.6467 9.31578 24.68L9.68578 24.77C9.89245 24.8233 9.99578 24.94 9.99578 25.12C9.99578 25.2 9.96578 25.27 9.90578 25.33ZM7.94578 21.4C7.75245 21.4 7.56245 21.4733 7.37578 21.62C7.18911 21.76 7.02578 21.95 6.88578 22.19C6.74578 22.43 6.64911 22.7033 6.59578 23.01H9.17578C9.13578 22.5367 9.00578 22.15 8.78578 21.85C8.56578 21.55 8.28578 21.4 7.94578 21.4ZM10.9452 24.96C10.9252 24.92 10.9152 24.8833 10.9152 24.85C10.9152 24.77 10.9519 24.7033 11.0252 24.65C11.0986 24.59 11.1819 24.56 11.2752 24.56H11.8552C12.0152 24.56 12.1186 24.6533 12.1652 24.84C12.2186 25.0333 12.3419 25.19 12.5352 25.31C12.7286 25.43 13.0186 25.49 13.4052 25.49C13.8319 25.49 14.1252 25.4133 14.2852 25.26C14.4519 25.1067 14.5352 24.8867 14.5352 24.6C14.5352 24.3067 14.4252 24.0767 14.2052 23.91C13.9852 23.7367 13.6752 23.6567 13.2752 23.67C12.7152 23.6833 12.2686 23.6333 11.9352 23.52C11.6086 23.4 11.3719 23.2367 11.2252 23.03C11.0852 22.8233 11.0152 22.5933 11.0152 22.34C11.0152 21.8667 11.2252 21.4933 11.6452 21.22C12.0719 20.94 12.6719 20.8 13.4452 20.8C14.3052 20.8 14.9586 20.9833 15.4052 21.35C15.5852 21.4967 15.6752 21.6267 15.6752 21.74C15.6752 21.8067 15.6486 21.8567 15.5952 21.89L15.4252 22.02C15.3586 22.0667 15.2952 22.09 15.2352 22.09C15.1686 22.09 15.1152 22.0733 15.0752 22.04C14.7886 21.8267 14.5119 21.6667 14.2452 21.56C13.9852 21.4533 13.7186 21.4 13.4452 21.4C13.0719 21.4 12.7852 21.49 12.5852 21.67C12.3919 21.8433 12.2952 22.0667 12.2952 22.34C12.2952 22.6 12.3686 22.7867 12.5152 22.9C12.6686 23.0133 12.9219 23.07 13.2752 23.07C13.7286 23.07 14.1486 23.13 14.5352 23.25C14.9219 23.37 15.2319 23.5467 15.4652 23.78C15.6986 24.0067 15.8152 24.28 15.8152 24.6C15.8152 24.8867 15.7119 25.1433 15.5052 25.37C15.2986 25.5967 15.0119 25.7733 14.6452 25.9C14.2852 26.0267 13.8719 26.09 13.4052 26.09C12.7986 26.09 12.2719 25.98 11.8252 25.76C11.3852 25.54 11.0919 25.2733 10.9452 24.96ZM18.6468 20.8C19.1401 20.8 19.5735 20.92 19.9468 21.16C20.3201 21.3933 20.6101 21.7133 20.8168 22.12C21.0301 22.5267 21.1368 22.9867 21.1368 23.5C21.1368 23.9933 21.0368 24.4367 20.8368 24.83C20.6435 25.2233 20.3701 25.5333 20.0168 25.76C19.6635 25.9867 19.2501 26.1 18.7768 26.1C18.2768 26.1 17.8368 25.9867 17.4568 25.76C17.0835 25.5267 16.7901 25.21 16.5768 24.81C16.3701 24.41 16.2668 23.9567 16.2668 23.45C16.2668 22.9367 16.3635 22.48 16.5568 22.08C16.7568 21.68 17.0335 21.3667 17.3868 21.14C17.7468 20.9133 18.1668 20.8 18.6468 20.8ZM18.6468 21.4C18.3868 21.4 18.1635 21.49 17.9768 21.67C17.7901 21.8433 17.6468 22.0867 17.5468 22.4C17.4468 22.7067 17.3968 23.0567 17.3968 23.45C17.3968 24.1567 17.5301 24.6767 17.7968 25.01C18.0635 25.3367 18.3901 25.5 18.7768 25.5C19.0768 25.5 19.3168 25.4033 19.4968 25.21C19.6768 25.0167 19.8068 24.7667 19.8868 24.46C19.9668 24.1533 20.0068 23.8333 20.0068 23.5C20.0068 22.8867 19.8868 22.3833 19.6468 21.99C19.4068 21.5967 19.0735 21.4 18.6468 21.4ZM22.0328 18.74C22.0328 18.6467 22.0761 18.5667 22.1628 18.5C22.2561 18.4333 22.3661 18.4 22.4928 18.4H22.8228C22.9495 18.4 23.0561 18.4333 23.1428 18.5C23.2295 18.5667 23.2728 18.6467 23.2728 18.74V25.76C23.2728 25.8533 23.2295 25.9333 23.1428 26C23.0561 26.0667 22.9495 26.1 22.8228 26.1H22.4928C22.3661 26.1 22.2561 26.0667 22.1628 26C22.0761 25.9333 22.0328 25.8533 22.0328 25.76V18.74ZM27.3272 21.18C27.3739 20.9933 27.4972 20.9 27.6972 20.9H28.2972C28.4972 20.9 28.5972 20.98 28.5972 21.14C28.5972 21.18 28.5872 21.2267 28.5672 21.28L27.0872 25.73C27.0272 25.91 26.9039 26 26.7172 26H26.0572C25.8639 26 25.7372 25.91 25.6772 25.73L24.1972 21.28C24.1772 21.2267 24.1672 21.18 24.1672 21.14C24.1672 20.98 24.2672 20.9 24.4672 20.9H25.0672C25.2672 20.9 25.3905 20.9933 25.4372 21.18L26.3872 24.81L27.3272 21.18ZM33.3238 25.33C33.1171 25.5367 32.8538 25.7167 32.5338 25.87C32.2204 26.0233 31.8771 26.1 31.5038 26.1C30.6771 26.1 30.0338 25.8633 29.5738 25.39C29.1204 24.91 28.8938 24.2667 28.8938 23.46C28.8938 22.9533 28.9971 22.5 29.2038 22.1C29.4171 21.7 29.7071 21.3833 30.0738 21.15C30.4471 20.9167 30.8771 20.8 31.3638 20.8C31.8638 20.8 32.3004 20.9067 32.6738 21.12C33.0538 21.3333 33.3504 21.6267 33.5638 22C33.7771 22.3733 33.8838 22.8033 33.8838 23.29C33.8838 23.3833 33.8504 23.46 33.7838 23.52C33.7238 23.58 33.6471 23.61 33.5538 23.61H29.9738C30.0004 24.2033 30.1571 24.6667 30.4438 25C30.7304 25.3333 31.0838 25.5 31.5038 25.5C31.7171 25.5 31.8871 25.4433 32.0138 25.33C32.1404 25.2167 32.2671 25.0567 32.3938 24.85C32.4671 24.7033 32.5804 24.6467 32.7338 24.68L33.1038 24.77C33.3104 24.8233 33.4138 24.94 33.4138 25.12C33.4138 25.2 33.3838 25.27 33.3238 25.33ZM31.3638 21.4C31.1704 21.4 30.9804 21.4733 30.7938 21.62C30.6071 21.76 30.4438 21.95 30.3038 22.19C30.1638 22.43 30.0671 22.7033 30.0138 23.01H32.5938C32.5538 22.5367 32.4238 22.15 32.2038 21.85C31.9838 21.55 31.7038 21.4 31.3638 21.4ZM39.2132 25.66C39.2132 25.7533 39.1799 25.8333 39.1132 25.9C39.0465 25.9667 38.9665 26 38.8732 26H38.3732C38.2665 26 38.1832 25.97 38.1232 25.91C38.0632 25.8433 38.0332 25.7667 38.0332 25.68C37.8532 25.8133 37.6432 25.9167 37.4032 25.99C37.1632 26.0633 36.8932 26.1 36.5932 26.1C36.1199 26.1 35.7132 25.99 35.3732 25.77C35.0332 25.5433 34.7732 25.2367 34.5932 24.85C34.4199 24.4567 34.3332 24.0067 34.3332 23.5C34.3332 22.9867 34.4332 22.5267 34.6332 22.12C34.8332 21.7133 35.1099 21.3933 35.4632 21.16C35.8232 20.92 36.2432 20.8 36.7232 20.8C36.9899 20.8 37.2299 20.84 37.4432 20.92C37.6632 21 37.8599 21.1133 38.0332 21.26V18.74C38.0332 18.6467 38.0665 18.5667 38.1332 18.5C38.1999 18.4333 38.2799 18.4 38.3732 18.4H38.8732C38.9665 18.4 39.0465 18.4333 39.1132 18.5C39.1799 18.5667 39.2132 18.6467 39.2132 18.74V25.66ZM36.7232 21.4C36.5165 21.4 36.3199 21.5 36.1332 21.7C35.9532 21.8933 35.8032 22.15 35.6832 22.47C35.5699 22.79 35.5132 23.1333 35.5132 23.5C35.5132 23.8667 35.5632 24.2033 35.6632 24.51C35.7632 24.81 35.8965 25.05 36.0632 25.23C36.2299 25.41 36.4065 25.5 36.5932 25.5C37.0132 25.5 37.3399 25.3133 37.5732 24.94C37.8065 24.56 37.9232 24.0633 37.9232 23.45C37.9232 23.0967 37.8665 22.7667 37.7532 22.46C37.6399 22.1467 37.4899 21.8933 37.3032 21.7C37.1232 21.5 36.9299 21.4 36.7232 21.4Z" fill="#888076"/>
</svg>
